<svg width="89" height="131" viewBox="0 0 89 131" fill="none" xmlns="http://www.w3.org/2000/svg">
<path fill-rule="evenodd" clip-rule="evenodd" d="M8.62514 0.560757C5.72031 -0.217592 2.72813 1.53378 2.14283 4.48358C0.737116 11.5681 0 18.8934 0 26.3908C0 73.1853 28.7147 113.273 69.485 129.995C72.3331 131.164 75.5081 129.535 76.3824 126.583L88.7147 84.9508C89.5013 82.2953 88.1292 79.5001 85.6598 78.2464C66.7632 68.6528 53.8145 49.034 53.8145 26.3908C53.8145 23.6115 54.0095 20.8778 54.3868 18.2026C54.7925 15.3252 53.1165 12.4822 50.3097 11.7301L8.62514 0.560757Z" fill="#F2F2F2"/>
<path fill-rule="evenodd" clip-rule="evenodd" d="M12.9796 3.54693C10.2922 2.82684 7.52394 4.44712 6.98245 7.17614C5.68195 13.7304 5 20.5074 5 27.4437C5 70.7358 31.5655 107.823 69.2842 123.294C71.9192 124.374 74.8565 122.868 75.6654 120.137L87.0747 81.6206C87.8024 79.1639 86.533 76.5779 84.2484 75.418C66.7662 66.5425 54.7866 48.3921 54.7866 27.4437C54.7866 24.8724 54.9671 22.3433 55.3161 19.8683C55.6914 17.2063 54.1409 14.5761 51.5442 13.8803L12.9796 3.54693Z" fill="#66D6AA"/>
</svg>
