<svg width="45" height="45" viewBox="0 0 45 45" fill="none" xmlns="http://www.w3.org/2000/svg">
<g filter="url(#filter0_d_586_18846)">
<path d="M22.5327 37.5533C30.9494 37.5533 37.7724 30.7137 37.7724 22.2766C37.7724 13.8396 30.9494 7 22.5327 7C14.116 7 7.29297 13.8396 7.29297 22.2766C7.29297 30.7137 14.116 37.5533 22.5327 37.5533Z" fill="#DBF3D2"/>
<path d="M7.67969 22.8724C7.67969 30.438 13.665 36.3824 21.1846 37.0059C30.8607 37.8026 36.0995 31.0269 36.0995 23.4613C36.0995 15.8957 28.8978 9.16846 21.3505 9.16846C17.7253 9.17029 14.2492 10.6147 11.6858 13.1843C9.12242 15.7539 7.68152 19.2385 7.67969 22.8724Z" fill="#247A60"/>
<path d="M12.5591 33.2093C18.026 38.163 27.5085 38.641 32.4502 33.1608C32.4502 33.1608 19.2822 37.7824 14.7135 28.5C10.7759 20.5 13.7134 18 9.71345 14.5C4.77178 19.9802 7.09215 28.2487 12.5591 33.2093Z" fill="#66D6AA"/>
<path d="M22.7671 37.5533C31.1837 37.5533 38.0068 30.7137 38.0068 22.2766C38.0068 13.8396 31.1837 7 22.7671 7C14.3504 7 7.52734 13.8396 7.52734 22.2766C7.52734 30.7137 14.3504 37.5533 22.7671 37.5533Z" stroke="#333027" stroke-width="2" stroke-miterlimit="10"/>
<path d="M22.3892 28.9431C22.273 28.9431 22.1832 28.9061 22.1198 28.8322C22.0564 28.7688 22.0247 28.6843 22.0247 28.5786V27.4691C21.2533 27.4057 20.6035 27.2313 20.0751 26.946C19.5468 26.6502 19.1453 26.2962 18.8706 25.8841C18.5958 25.472 18.4479 25.0335 18.4268 24.5686C18.4268 24.484 18.4585 24.4101 18.5219 24.3467C18.5958 24.2727 18.6804 24.2357 18.7755 24.2357H19.5838C19.7106 24.2357 19.8057 24.2674 19.8691 24.3308C19.9325 24.3942 19.9748 24.4682 19.9959 24.5527C20.0593 24.8063 20.1914 25.0599 20.3921 25.3135C20.5929 25.5565 20.8782 25.7626 21.248 25.9317C21.6284 26.0902 22.1145 26.1694 22.7062 26.1694C23.615 26.1694 24.2807 26.0109 24.7033 25.6939C25.1365 25.3663 25.3532 24.9331 25.3532 24.3942C25.3532 24.0244 25.2369 23.7285 25.0045 23.5066C24.7826 23.2742 24.4392 23.0681 23.9742 22.8885C23.5093 22.7088 22.907 22.5134 22.1673 22.302C21.396 22.0801 20.7567 21.8371 20.2495 21.5729C19.7423 21.3088 19.3619 20.9812 19.1083 20.5902C18.8653 20.1993 18.7438 19.7026 18.7438 19.1003C18.7438 18.329 19.0291 17.6686 19.5997 17.1191C20.1702 16.5591 20.9786 16.2315 22.0247 16.1364V15.0428C22.0247 14.9371 22.0564 14.8526 22.1198 14.7892C22.1832 14.7152 22.273 14.6782 22.3892 14.6782H22.9915C23.0972 14.6782 23.1817 14.7152 23.2451 14.7892C23.3191 14.8526 23.3561 14.9371 23.3561 15.0428V16.1523C24.064 16.2368 24.6558 16.4323 25.1313 16.7387C25.6068 17.0451 25.966 17.3991 26.2091 17.8007C26.4521 18.2022 26.5789 18.5931 26.5895 18.9735C26.5895 19.0475 26.563 19.1215 26.5102 19.1954C26.4574 19.2588 26.3728 19.2905 26.2566 19.2905H25.4166C25.3426 19.2905 25.2633 19.2694 25.1788 19.2271C25.1048 19.1849 25.0467 19.1056 25.0045 18.9894C24.9411 18.5562 24.698 18.1916 24.2754 17.8958C23.8527 17.5999 23.3032 17.452 22.627 17.452C21.9402 17.452 21.3801 17.584 20.9469 17.8482C20.5242 18.1124 20.3129 18.5245 20.3129 19.0845C20.3129 19.4438 20.4133 19.7449 20.614 19.9879C20.8148 20.2204 21.1318 20.4265 21.565 20.6061C21.9983 20.7857 22.5636 20.9759 23.261 21.1767C24.1063 21.4091 24.7984 21.6575 25.3373 21.9216C25.8762 22.1752 26.2725 22.4975 26.5261 22.8885C26.7902 23.2689 26.9223 23.7602 26.9223 24.3625C26.9223 24.9648 26.7744 25.4879 26.4785 25.9317C26.1932 26.3755 25.7811 26.7294 25.2422 26.9936C24.7139 27.2578 24.0852 27.4215 23.3561 27.4849V28.5786C23.3561 28.6843 23.3191 28.7688 23.2451 28.8322C23.1817 28.9061 23.0972 28.9431 22.9915 28.9431H22.3892Z" fill="#F2F2F2"/>
</g>
<defs>
<filter id="filter0_d_586_18846" x="0.527344" y="0" width="44.4795" height="44.5532" filterUnits="userSpaceOnUse" color-interpolation-filters="sRGB">
<feFlood flood-opacity="0" result="BackgroundImageFix"/>
<feColorMatrix in="SourceAlpha" type="matrix" values="0 0 0 0 0 0 0 0 0 0 0 0 0 0 0 0 0 0 127 0" result="hardAlpha"/>
<feOffset/>
<feGaussianBlur stdDeviation="3"/>
<feComposite in2="hardAlpha" operator="out"/>
<feColorMatrix type="matrix" values="0 0 0 0 0.2 0 0 0 0 0.188235 0 0 0 0 0.152941 0 0 0 0.25 0"/>
<feBlend mode="normal" in2="BackgroundImageFix" result="effect1_dropShadow_586_18846"/>
<feBlend mode="normal" in="SourceGraphic" in2="effect1_dropShadow_586_18846" result="shape"/>
</filter>
</defs>
</svg>
