<svg width="104" height="96" viewBox="0 0 104 96" fill="none" xmlns="http://www.w3.org/2000/svg">
<path fill-rule="evenodd" clip-rule="evenodd" d="M1.05431 76.6341C0.00350094 79.595 1.76265 82.7682 4.77593 83.582L47.6775 95.1697C50.4967 95.9311 53.3923 94.3362 54.5589 91.6395C62.4077 73.4956 78.8784 60.012 98.7533 56.4481C101.564 55.944 103.749 53.5681 103.749 50.69V5.80166C103.749 2.62293 101.107 0.0763679 97.9688 0.385293C53.059 4.80577 15.7281 35.2884 1.05431 76.6341Z" fill="#F2F2F2"/>
<path fill-rule="evenodd" clip-rule="evenodd" d="M6.02411 73.5556C5.07707 76.2028 6.66251 79.04 9.37824 79.7676L48.0434 90.128C50.5842 90.8088 53.1939 89.3828 54.2453 86.9717C61.319 70.7495 76.1633 58.694 94.0756 55.5076C96.6091 55.0569 98.5776 52.9326 98.5776 50.3593V10.2253C98.5776 7.38324 96.1972 5.10639 93.3686 5.3826C52.8935 9.33488 19.2489 36.589 6.02411 73.5556Z" fill="#FFCF33"/>
</svg>
