<svg width="139" height="217" viewBox="0 0 139 217" fill="none" xmlns="http://www.w3.org/2000/svg">
<path fill-rule="evenodd" clip-rule="evenodd" d="M29.9297 217C20.9512 217 12.2273 215.91 3.8831 213.855C1.08786 213.167 -0.481202 210.253 0.336421 207.493L12.1961 167.456C13.017 164.684 15.9316 163.133 18.7654 163.703C22.3741 164.428 26.1075 164.808 29.9297 164.808C61.0604 164.808 86.2968 139.572 86.2968 108.441C86.2968 79.0687 63.8305 54.9435 35.1444 52.3121C32.274 52.0488 29.9297 49.7374 29.9297 46.8549V5.10154C29.9297 2.21907 32.2701 -0.130656 35.1494 0.0056457C92.6808 2.72915 138.488 50.2357 138.488 108.441C138.488 168.397 89.885 217 29.9297 217Z" fill="#F2F2F2"/>
<path fill-rule="evenodd" clip-rule="evenodd" d="M29.556 211C20.9913 211 12.6694 209.96 4.70969 208C2.04327 207.343 0.546508 204.564 1.32645 201.931L12.6396 163.739C13.4227 161.095 16.2029 159.616 18.9061 160.159C22.3486 160.851 25.9099 161.213 29.556 161.213C59.2521 161.213 83.3255 137.14 83.3255 107.444C83.3255 79.425 61.8945 56.4115 34.5304 53.9014C31.7922 53.6502 29.556 51.4454 29.556 48.6957V8.86644C29.556 6.11681 31.7886 3.87536 34.5351 4.00539C89.4153 6.60338 133.112 51.9207 133.112 107.444C133.112 164.636 86.7484 211 29.556 211Z" fill="#247A60"/>
</svg>
